# AST/ASF file generated using VICON BodyLanguage
# -----------------------------------------------
:version 1.10
:name VICON
:units
  mass 1.0
  length 0.45
  angle deg
:documentation
   .ast/.asf automatically generated from VICON data using
   VICON BodyBuilder and BodyLanguage model FoxedUp or BRILLIANT.MOD
:root
   order TX TY TZ RX RY RZ
   axis XYZ
   position 0 0 0  
   orientation 0 0 0 
:bonedata
  begin
     id 1 
     name lhipjoint
     direction 0.627412 -0.730575 0.26947 
     length 2.49821 
     axis 0 0 0  XYZ
  end
  begin
     id 2 
     name lfemur
     direction 0.34202 -0.939693 0  
     length 6.89165  
     axis 0 0 20  XYZ
    dof rx ry rz
    limits (-160.0 20.0)
           (-70.0 70.0)
           (-60.0 70.0)
  end
  begin
     id 3 
     name ltibia
     direction 0.34202 -0.939693 0   
     length 7.91287   
     axis 0 0 20   XYZ
    dof rx
    limits (-10.0 170.0)
  end
  begin
     id 4 
     name lfoot
     direction 0.0941675 -0.258723 0.96135   
     length 2.16919   
     axis -90 7.62852e-016 20   XYZ
    dof rx rz
    limits (-45.0 90.0)
           (-70.0 20.0)
  end
  begin
     id 5 
     name ltoes
     direction 1.5347e-011 -4.21941e-011 1   
     length 1.08535   
     axis -90 7.62852e-016 20   XYZ
    dof rx
    limits (-90.0 20.0)
  end
  begin
     id 6 
     name rhipjoint
     direction -0.614241 -0.740361 0.27308   
     length 2.46519  
     axis 0 0 0  XYZ 
  end
  begin
     id 7 
     name rfemur
     direction -0.34202 -0.939693 0   
     length 7.27512   
     axis 0 0 -20   XYZ
    dof rx ry rz
    limits (-160.0 20.0)
           (-70.0 70.0)
           (-70.0 60.0)
  end
  begin
     id 8 
     name rtibia
     direction -0.34202 -0.939693 0   
     length 7.89523   
     axis 0 0 -20   XYZ
    dof rx
    limits (-10.0 170.0)
 end
 begin
     id 9 
     name rfoot
     direction -0.0860444 -0.236405 0.967837   
     length 2.29534  
     axis -90 -7.62852e-016 -20   XYZ
    dof rx rz
    limits (-45.0 90.0)
           (-20.0 70.0)
  end
  begin
     id 10 
     name rtoes
     direction -1.53608e-011 -4.21861e-011 1   
     length 1.14915   
     axis -90 -7.62852e-016 -20   XYZ
    dof rx
    limits (-90.0 20.0)
  end
  begin
     id 11 
     name lowerback
     direction -0.00734074 0.997215 -0.0742143   
     length 2.13469   
     axis 0 0 0   XYZ
    dof rx ry rz
    limits (-20.0 45.0)
           (-30.0 30.0)
           (-30.0 30.0)
  end
  begin
     id 12 
     name upperback
     direction 0.0285728 0.99958 -0.00488656   
     length 2.13416   
     axis 0 0 0   XYZ
    dof rx ry rz
    limits (-20.0 45.0)
           (-30.0 30.0)
           (-30.0 30.0)
  end
  begin
     id 13 
     name thorax
     direction 0.0316844 0.999056 0.0297249   
     length 2.14463   
     axis 0 0 0   XYZ
    dof rx ry rz
    limits (-20.0 45.0)
           (-30.0 30.0)
           (-30.0 30.0)
  end
  begin
     id 14 
     name lowerneck
     direction -0.0281545 0.996802 0.0747864   
     length 1.79004   
     axis 0 0 0   XYZ
    dof rx ry rz
    limits (-20.0 45.0)
           (-30.0 30.0)
           (-30.0 30.0)
  end
  begin
     id 15 
     name upperneck
     direction -0.00100185 0.982732 -0.185031   
     length 1.79988   
     axis 0 0 0   XYZ
    dof rx ry rz
    limits (-20.0 45.0)
           (-30.0 30.0)
           (-30.0 30.0)
  end
  begin
     id 16
     name head
     direction 0.00403747 0.997539 -0.0700022  
     length 1.81696  
     axis 0 0 0   XYZ
    dof rx ry rz
    limits (-20.0 45.0)
           (-30.0 30.0)
           (-30.0 30.0)
  end
  begin
     id 17 
     name lclavicle
     direction 0.959882 0.242905 -0.140082  
     length 3.87755  
     axis 0 0 0   XYZ
    dof ry rz
    limits (-20.0 10.0)
           (0.0 20.0)
  end
  begin
     id 18 
     name lhumerus
     direction 1 -4.4895e-011 3.76166e-027   
     length 5.14601   
     axis 180 -30 -90   XYZ
    dof rx ry rz
    limits (-60.0 90.0)
           (-90.0 90.0)
           (-90.0 90.0)
  end
  begin
     id 19
     name lradius
     direction 1 -4.48966e-011 -3.24039e-027   
     length 3.64452   
     axis 180 -30 -90   XYZ
    dof rx
    limits (-10.0 170.0)
  end
  begin
     id 20
     name lwrist
     direction 1 -4.48999e-011 2.57119e-027   
     length 1.82226   
     axis -1.61769e-015 90 90   XYZ
    dof ry
    limits (-180.0 0.0)
 end
  begin
     id 21 
     name lhand
     direction 1 -4.48961e-011 5.13984e-027   
     length 0.56228   
     axis -3.27988e-015 90 90   XYZ
    dof rx rz
    limits (-90.0 90.0)
           (-45.0 45.0)
  end
  begin
     id 22 
     name lfingers
     direction 1 -4.48991e-011 1.02836e-026   
     length 0.453325   
     axis -6.5598e-015 90 90   XYZ
    dof rx
    limits (0.0 90.0)
  end
  begin
     id 23
     name lthumb
     direction 0.707107 -6.34956e-011 0.707107   
     length 0.650886   
     axis -90 45 2.19363e-014   XYZ
    dof rx rz
    limits (-45.0 45.0)
           (-45.0 45.0)
  end
  begin
     id 24 
     name rclavicle
     direction -0.929201 0.345171 -0.132073   
     length 3.55416  
     axis 0 0 0   XYZ 
    dof ry rz
    limits (-10.0 20.0)
           (-20.0 0.0)
  end
  begin
     id 25 
     name rhumerus
     direction -1 -4.48979e-011 4.53734e-027  
     length 5.33913   
     axis 180 30 90   XYZ
    dof rx ry rz
    limits (-90.0 60.0)
           (-90.0 90.0)
           (-90.0 90.0)
  end
  begin
     id 26 
     name rradius
     direction -1 -4.4896e-011 -2.24007e-027   
     length 3.56478   
     axis 180 30 90   XYZ
    dof rx
    limits (-10.0 170.0)
  end
  begin
     id 27 
     name rwrist
     direction -1 -4.48923e-011 2.56866e-027   
     length 1.78239   
     axis -1.61769e-015 -90 -90   XYZ
    dof ry
    limits (-180.0 0.0)
  end
  begin
     id 28
     name rhand
     direction -1 -4.48914e-011 5.13667e-027   
     length 0.857474   
     axis -3.27988e-015 -90 -90   XYZ
    dof rx rz
    limits (-90.0 90.0)
           (-45.0 45.0)
  end
  begin
     id 29
     name rfingers
     direction -1 -4.49112e-011 1.02998e-026   
     length 0.691318   
     axis -6.5598e-015 -90 -90   XYZ
    dof rx
    limits (0.0 90.0)
  end
  begin
     id 30
     name rthumb
     direction -0.707107 -6.34979e-011 0.707107   
     length 0.992598   
     axis -90 -45 -2.19363e-014   XYZ
    dof rx rz
    limits (-45.0 45.0)
           (-45.0 45.0)
  end
:hierarchy
  begin
    root lhipjoint rhipjoint lowerback
    lhipjoint lfemur
    lfemur ltibia
    ltibia lfoot
    lfoot ltoes
    rhipjoint rfemur
    rfemur rtibia
    rtibia rfoot
    rfoot rtoes
    lowerback upperback
    upperback thorax
    thorax lowerneck lclavicle rclavicle
    lowerneck upperneck
    upperneck head
    lclavicle lhumerus
    lhumerus lradius
    lradius lwrist
    lwrist lhand lthumb
    lhand lfingers
    rclavicle rhumerus
    rhumerus rradius
    rradius rwrist
    rwrist rhand rthumb
    rhand rfingers
  end

#!OML:ASF F:\VICON\USERDATA\INSTALL\Justin4\Justin4.ASF
:FULLY-SPECIFIED
:DEGREES
435
root 11.2622 18.1769 10.0368 -100.32 -92.7958 110.892
lowerback 18.5923 1.91102 -0.753887
upperback 3.35809 2.38378 3.12261
thorax -6.9539 1.10853 3.21989
lowerneck -12.0248 3.02411 -3.88243
upperneck 8.34993 4.53626 1.51062
head 4.33386 2.19784 1.41061
rclavicle 1.59028e-015 -1.27222e-014
rhumerus -14.5649 19.0485 -83.3517
rradius 134.98
rwrist 5.49514
rhand -18.5157 18.222
rfingers 7.12502
rthumb 7.77261 -11.6152
lclavicle 1.59028e-015 -1.27222e-014
lhumerus 12.841 -13.2036 79.3852
lradius 137.155
lwrist 6.55491
lhand -19.4284 9.09929
lfingers 7.12502
lthumb 6.8916 38.9671
rfemur -36.3147 -12.8996 24.6955
rtibia 58.9878
rfoot -17.1449 4.9775
rtoes 8.3277
lfemur -29.5124 2.69818 -13.0131
ltibia 59.5874
lfoot -9.39835 -7.90215
ltoes -33.4481
436
root 11.3141 18.1369 10.1104 -91.9875 -92.4399 102.576
lowerback 18.6224 2.06614 -1.44434
upperback 3.28068 2.4619 3.13737
thorax -7.08898 1.16698 3.61089
lowerneck -11.6565 3.21142 -4.03241
upperneck 8.24137 4.84773 1.01336
head 4.2415 2.31686 1.29326
rclavicle -6.75868e-015 -8.74653e-015
rhumerus -15.0125 19.1532 -83.1636
rradius 134.84
rwrist 5.81457
rhand -18.7105 18.2354
rfingers 7.12502
rthumb 7.5846 -11.6086
lclavicle -6.75868e-015 -8.74653e-015
lhumerus 12.5584 -12.6346 79.9752
lradius 137.485
lwrist 7.45432
lhand -18.5102 9.06079
lfingers 7.12502
lthumb 7.77796 38.8977
rfemur -37.4144 -13.1877 25.512
rtibia 58.3263
rfoot -17.144 4.92477
rtoes 7.69571
lfemur -28.6351 2.87601 -12.4682
ltibia 60.5391
lfoot -8.78896 -8.2819
ltoes -24.0778
437
root 11.3731 18.0498 10.1852 -77.384 -92.0485 88.005
lowerback 18.6989 2.19467 -2.12487
upperback 3.19667 2.48679 2.87831
thorax -7.2399 1.19894 3.71167
lowerneck -11.5645 3.33988 -4.16531
upperneck 8.16208 5.04553 0.920758
head 4.19624 2.40569 1.29555
rclavicle -6.55989e-015 -7.15625e-015
rhumerus -15.5863 19.3953 -83.81
rradius 134.684
rwrist 6.12237
rhand -19.1416 18.1823
rfingers 7.12502
rthumb 7.16849 -11.6763
lclavicle -6.55989e-015 -7.15625e-015
lhumerus 12.1834 -12.287 80.6099
lradius 137.57
lwrist 6.75619
lhand -18.0029 9.00674
lfingers 7.12502
lthumb 8.26755 38.825
rfemur -38.8326 -14.8787 26.8158
rtibia 57.7359
rfoot -17.319 3.70116
rtoes -4.52785
lfemur -27.6962 3.07805 -12.0056
ltibia 61.2124
lfoot -7.47949 -8.594
ltoes -23.5014
438
root 11.4262 17.9808 10.2571 -60.6969 -91.8047 71.4315
lowerback 18.6658 2.25711 -2.59481
upperback 3.1168 2.45328 2.44768
thorax -7.30541 1.19545 3.52164
lowerneck -11.4904 3.45795 -4.29742
upperneck 7.89663 5.20162 1.08473
head 4.09023 2.49344 1.37053
rclavicle -1.43125e-014 4.37326e-015
rhumerus -16.1794 19.2789 -84.7903
rradius 134.604
rwrist 6.29822
rhand -18.941 18.5108
rfingers 7.12502
rthumb 7.36214 -11.3411
lclavicle -1.43125e-014 4.37326e-015
lhumerus 11.9784 -12.2349 81.2095
lradius 137.438
lwrist 5.69776
lhand -17.5109 8.70168
lfingers 7.12502
lthumb 8.74233 38.5006
rfemur -40.2089 -15.8482 27.9982
rtibia 57.092
rfoot -17.1631 2.5315
rtoes -13.7268
lfemur -26.5619 3.00022 -11.5276
ltibia 61.2627
lfoot -6.03365 -8.71902
ltoes -22.2813
439
root 11.4712 17.9354 10.3259 -45.0337 -91.6409 55.9636
lowerback 18.4529 2.21344 -2.92947
upperback 3.07247 2.31152 2.04812
thorax -7.22201 1.13364 3.31876
lowerneck -11.5545 3.64773 -4.52643
upperneck 7.6915 5.47032 1.31063
head 4.01703 2.63634 1.49024
rclavicle -2.18663e-014 -9.54166e-015
rhumerus -16.664 19.0836 -85.4499
rradius 134.682
rwrist 5.97641
rhand -18.7422 18.7741
rfingers 7.12502
rthumb 7.554 -11.071
lclavicle -2.18663e-014 -9.54166e-015
lhumerus 11.8924 -12.3686 81.2673
lradius 137.34
lwrist 5.04134
lhand -18.154 8.69916
lfingers 7.12502
lthumb 8.1217 38.5231
rfemur -41.5755 -16.2485 28.8126
rtibia 56.5461
rfoot -16.4769 3.11768
rtoes -14.4258
lfemur -25.1688 2.61486 -11.0951
ltibia 60.4722
lfoot -4.84314 -8.48229
ltoes -22.0416
440
root 11.5148 17.8766 10.3955 -23.3609 -91.3943 34.4368
lowerback 18.2987 2.17602 -3.52368
upperback 3.02692 2.13506 1.75836
thorax -7.18309 1.06269 3.39062
lowerneck -11.8116 3.74115 -5.05876
upperneck 7.71431 5.66135 1.63178
head 4.0353 2.73331 1.69035
rclavicle 7.15625e-015 3.97569e-016
rhumerus -17.2021 19.0326 -85.8125
rradius 134.853
rwrist 5.40386
rhand -18.9241 18.5802
rfingers 7.12502
rthumb 7.3784 -11.2711
lclavicle 7.15625e-015 3.97569e-016
lhumerus 11.8063 -12.3541 81.3154
lradius 137.401
lwrist 4.83646
lhand -18.0844 8.38834
lfingers 7.12502
lthumb 8.18891 38.2097
rfemur -42.9974 -16.9071 29.4222
rtibia 56.2289
rfoot -15.4627 3.66595
rtoes -16.0305
lfemur -23.5155 1.77595 -11.0024
ltibia 59.0221
lfoot -3.82932 -8.07778
ltoes -23.6486
441
root 11.5501 17.8454 10.4587 8.6738 -91.3912 2.50963
lowerback 18.1079 2.22055 -4.22815
upperback 3.02627 2.04198 1.41585
thorax -7.08332 1.03071 3.4485
lowerneck -12.2073 3.73525 -5.30127
upperneck 7.97508 5.72535 1.55391
head 4.17345 2.74717 1.72324
rclavicle 8.54774e-015 0
rhumerus -17.7104 18.737 -86.1567
rradius 135.08
rwrist 4.99088
rhand -19.209 18.3149
rfingers 7.12502
rthumb 7.10344 -11.5459
lclavicle 8.54774e-015 0
lhumerus 11.9369 -12.43 81.6022
lradius 137.459
lwrist 4.74147
lhand -17.1446 8.12005
lfingers 7.12502
lthumb 9.09577 37.9039
rfemur -44.1392 -16.5636 28.8068
rtibia 56.1165
rfoot -12.1785 7.20973
rtoes 6.26828
lfemur -21.447 0.674227 -11.2306
ltibia 56.7575
lfoot -2.96597 -7.4187
ltoes -26.5774
